<svg width="57" height="70" viewBox="0 0 57 70" fill="none" xmlns="http://www.w3.org/2000/svg">
<path d="M47.0126 56C46.8557 56 46.6999 55.9626 46.5586 55.8888L39.8886 52.3728C39.4212 52.1261 39.2463 51.5546 39.4963 51.0954C39.7473 50.6373 40.3268 50.4634 40.7964 50.71L46.6169 53.779L54.5289 39.1499L52.0967 37.8968C51.6271 37.6557 51.4466 37.0852 51.6932 36.6239C51.9387 36.1625 52.5181 35.983 52.9889 36.2274L56.2752 37.921C56.5016 38.0378 56.6708 38.2382 56.7459 38.4771C56.821 38.7172 56.7963 38.9771 56.6764 39.1984L47.8599 55.5001C47.74 55.7214 47.536 55.8866 47.2917 55.9593C47.1998 55.9868 47.1067 56 47.0126 56ZM37.8038 42.6384C37.6514 42.6384 37.4967 42.6032 37.3521 42.5272C36.8847 42.2817 36.7088 41.7101 36.9587 41.251L42.1964 31.63C42.4463 31.172 43.0258 30.9958 43.4954 31.2435L46.7817 32.9702C47.2491 33.2157 47.425 33.7872 47.1751 34.2464C46.9263 34.7045 46.3468 34.8807 45.8761 34.6329L43.436 33.3512L38.6512 42.1407C38.4786 42.4578 38.1468 42.6384 37.8038 42.6384Z" fill="white"/>
<path d="M51.8928 39.1873C51.737 39.1873 51.5812 39.1499 51.4411 39.0761L45.2272 35.8155C45.0019 35.6977 44.8338 35.4962 44.7598 35.2561C44.6858 35.0161 44.7127 34.7562 44.8349 34.536L46.1362 32.1706C46.385 31.7148 46.9645 31.5452 47.4285 31.7852L53.6424 35.0139C53.8688 35.1306 54.0369 35.3321 54.112 35.571C54.186 35.8111 54.1613 36.0699 54.0414 36.2912L52.7401 38.6885C52.6202 38.9087 52.4151 39.0739 52.1719 39.1466C52.0811 39.1741 51.9869 39.1873 51.8928 39.1873ZM46.9813 34.5987L51.4982 36.9684L51.8939 36.2384L47.3724 33.8896L46.9813 34.5987Z" fill="white"/>
<path d="M49.744 43.0866C49.5927 43.0866 49.438 43.0514 49.2946 42.9765L43.1782 39.7798C42.7097 39.5353 42.5326 38.9638 42.7814 38.5046C43.0302 38.0455 43.6108 37.8704 44.0793 38.1148L50.1957 41.3115C50.6642 41.556 50.8413 42.1275 50.5925 42.5867C50.4199 42.906 50.0881 43.0866 49.744 43.0866Z" fill="white"/>
<path d="M47.6614 46.922C47.5101 46.922 47.3554 46.8867 47.212 46.8118L41.0956 43.6151C40.627 43.3707 40.45 42.7992 40.6988 42.34C40.9476 41.8808 41.5282 41.7057 41.9967 41.9502L48.1131 45.1469C48.5816 45.3913 48.7587 45.9628 48.5099 46.422C48.3373 46.7414 48.0055 46.922 47.6614 46.922Z" fill="white"/>
<path d="M45.5803 50.7573C45.4289 50.7573 45.2754 50.7221 45.1319 50.6483L39.6656 47.804C39.1971 47.5595 39.0189 46.9891 39.2666 46.5288C39.5154 46.0696 40.0949 45.8968 40.5645 46.1368L46.0308 48.9811C46.4993 49.2256 46.6776 49.796 46.4299 50.2563C46.2572 50.5756 45.9244 50.7573 45.5803 50.7573Z" fill="white"/>
<path d="M19.4843 34.362C12.0884 34.362 9.66632 23.8739 9.41974 18.3081C9.39677 17.7883 9.80755 17.3479 10.3371 17.3253C10.8505 17.3049 11.3145 17.7057 11.3375 18.2266C11.5818 23.7473 14.0124 32.4757 19.491 32.4757C19.5089 32.4757 19.5257 32.4757 19.5431 32.4757C25.1333 32.4185 27.5554 23.6889 27.7689 18.1996C27.7891 17.6793 28.2565 17.2906 28.7642 17.2933C29.2944 17.3132 29.7068 17.7509 29.6867 18.2712C29.4367 24.7004 26.5343 34.2905 19.5633 34.3609C19.5369 34.3609 19.51 34.362 19.4843 34.362Z" fill="white"/>
<path d="M1.17157 56C0.641415 56 0.211578 55.5782 0.211578 55.0574C0.211578 48.9756 1.61038 43.4257 4.04931 39.8304C5.44812 37.769 7.5267 37.4541 9.36038 37.1766C10.8774 36.9464 12.1877 36.7482 13.1449 35.6977C13.911 34.8972 13.837 33.219 13.7507 31.2765L14.7056 31.1488L15.6645 31.108C15.7732 33.5636 15.864 35.6107 14.5588 36.9729C13.1589 38.509 11.2966 38.7909 9.65348 39.0398C8.0025 39.2908 6.57624 39.5067 5.6465 40.8765C3.41269 44.169 2.13157 49.3379 2.13157 55.0574C2.13157 55.5782 1.70172 56 1.17157 56Z" fill="white"/>
<path d="M37.9675 56C37.4373 56 37.008 55.5782 37.008 55.0574C37.008 49.3687 35.7146 44.1998 33.4595 40.8765C32.5292 39.5055 31.1091 39.2897 29.4631 39.0397C27.8239 38.7909 25.9661 38.509 24.5365 36.9596C23.2111 35.5766 23.3395 33.3687 23.4751 31.0309C23.5053 30.5112 23.9554 30.1103 24.4883 30.1434C25.0173 30.1731 25.422 30.6191 25.3917 31.1388C25.2796 33.0604 25.1743 34.8751 25.946 35.6801C26.9312 36.7471 28.2403 36.9453 29.7562 37.1766C31.5854 37.4541 33.6578 37.769 35.0567 39.8304C37.5169 43.4554 38.9269 49.0064 38.9269 55.0574C38.9269 55.5782 38.4976 56 37.9675 56Z" fill="white"/>
<path d="M37.9674 56.0001H1.17157C0.641415 56.0001 0.211578 55.5783 0.211578 55.0575C0.211578 54.5366 0.641415 54.1149 1.17157 54.1149H37.9674C38.4976 54.1149 38.9268 54.5366 38.9268 55.0575C38.9269 55.5783 38.4976 56.0001 37.9674 56.0001Z" fill="white"/>
<path d="M28.6952 19.6575C26.0624 19.6575 24.3716 18.4159 22.5816 17.1011C22.274 16.8754 21.9585 16.6436 21.6295 16.4123C16.8318 13.0824 12.6796 17.0218 11.1166 18.8696C10.7781 19.2704 10.1723 19.3249 9.76546 18.9924C9.35748 18.6598 9.30143 18.0652 9.64049 17.6649C13.6038 12.9761 18.5018 11.9339 22.7425 14.8757C23.0871 15.1185 23.4127 15.3574 23.7305 15.5909C25.3899 16.8093 26.7007 17.7712 28.6952 17.7712C29.2254 17.7712 29.6552 18.1935 29.6552 18.7143C29.6552 19.2352 29.2254 19.6575 28.6952 19.6575Z" fill="white"/>
<path d="M10.3791 19.2105C10.0171 19.2105 9.67077 19.0084 9.50825 18.6643C7.53222 14.4826 7.44031 10.6456 9.25046 7.85963C11.0836 5.03843 14.7425 3.48413 19.5532 3.48413C20.0833 3.48413 20.5132 3.90643 20.5132 4.42728C20.5132 4.94814 20.0833 5.37043 19.5532 5.37043C15.4207 5.37043 12.3367 6.61476 10.8684 8.87436C9.42363 11.0982 9.55869 14.2932 11.2489 17.8704C11.4725 18.3428 11.2635 18.9033 10.7826 19.1224C10.6521 19.1824 10.5148 19.2105 10.3791 19.2105Z" fill="white"/>
<path d="M28.7273 19.1786C28.5922 19.1786 28.4555 19.1505 28.3249 19.091C27.8441 18.8724 27.6345 18.3125 27.857 17.8395C29.5399 14.2646 29.6744 11.0784 28.2364 8.8683C26.7687 6.61255 23.6735 5.37043 19.5208 5.37043C18.9906 5.37043 18.5608 4.94814 18.5608 4.42728C18.5608 3.90643 18.9906 3.48413 19.5208 3.48413C24.351 3.48413 28.0206 5.03568 29.8538 7.85247C31.6572 10.6236 31.5664 14.4518 29.5988 18.6313C29.4368 18.9759 29.0899 19.1786 28.7273 19.1786Z" fill="white"/>
<path d="M14.51 6.0735C14.0919 6.0735 13.708 5.80316 13.5875 5.38857C13.5012 5.09015 13.453 4.74879 13.453 4.42725C13.453 1.94467 16.1184 0 19.5207 0C22.9415 0 25.6214 1.94467 25.6214 4.42725C25.6214 4.64859 25.6152 4.86992 25.5698 5.09126C25.4661 5.60275 24.9606 5.93696 24.4406 5.83069C23.9211 5.72883 23.5837 5.23221 23.6879 4.72126C23.7075 4.62326 23.7014 4.52526 23.7014 4.42725C23.7014 3.04969 21.787 1.8863 19.5207 1.8863C17.2723 1.8863 15.373 3.04969 15.373 4.42725C15.373 4.57481 15.3954 4.74053 15.4335 4.87212C15.5787 5.37261 15.2834 5.89456 14.7734 6.03716C14.6859 6.06194 14.5974 6.0735 14.51 6.0735Z" fill="white"/>
<path d="M19.5533 48.6156C19.4154 48.6156 19.277 48.5869 19.147 48.5275L13.1606 45.779C12.7078 45.5708 12.4931 45.0566 12.6674 44.5963L13.0081 43.6933L12.1148 43.5546C11.8492 43.5128 11.6138 43.3641 11.4653 43.1439C11.3168 42.9225 11.2692 42.6516 11.3342 42.3951L12.9286 36.0986C13.0261 35.7154 13.3567 35.4313 13.7574 35.3894C14.1525 35.3388 14.5431 35.5546 14.7208 35.9092L20.4141 47.2556C20.5945 47.6146 20.5239 48.0463 20.2392 48.3326C20.0543 48.5176 19.8054 48.6156 19.5533 48.6156ZM14.7746 44.4377L17.4842 45.6821L14.1581 39.0541L13.4498 41.8533L14.4663 42.0119C14.7505 42.057 14.9993 42.2233 15.1445 42.4677C15.2896 42.7122 15.3154 43.0073 15.2151 43.2716L14.7746 44.4377Z" fill="white"/>
<path d="M19.5534 48.6156C19.3012 48.6156 19.0524 48.5176 18.8674 48.3326C18.5827 48.0463 18.5121 47.6146 18.6926 47.2556L24.3864 35.9092C24.5641 35.5546 24.953 35.3377 25.3498 35.3894C25.7505 35.4313 26.0811 35.7154 26.1786 36.0986L27.7724 42.3951C27.8374 42.6517 27.7898 42.9225 27.6419 43.1428C27.4939 43.363 27.2591 43.5117 26.994 43.5535L26.1136 43.6934L26.4442 44.6095C26.6096 45.0665 26.3938 45.5731 25.946 45.779L19.9597 48.5275C19.8297 48.587 19.6912 48.6156 19.5534 48.6156ZM24.9485 39.0541L21.6224 45.6821L24.3438 44.4334L23.9196 43.2584C23.8243 42.9952 23.8534 42.7034 23.998 42.4634C24.1432 42.2222 24.3898 42.057 24.6711 42.013L25.658 41.8555L24.9485 39.0541Z" fill="white"/>
<path d="M19.5532 39.2017C17.302 39.2017 15.0508 38.4881 13.2558 37.0588C12.8439 36.7318 12.7806 36.1382 13.114 35.733C13.4486 35.3278 14.0527 35.265 14.464 35.5943C17.3653 37.9023 21.7416 37.9023 24.6429 35.5943C25.0531 35.2639 25.6589 35.3278 25.9929 35.733C26.3264 36.1382 26.2631 36.7318 25.8512 37.0588C24.0561 38.487 21.8044 39.2017 19.5532 39.2017Z" fill="white"/>
<path d="M19.5533 56C19.0231 56 18.5933 55.5782 18.5933 55.0574V47.6729C18.5933 47.1521 19.0231 46.7303 19.5533 46.7303C20.0834 46.7303 20.5132 47.1521 20.5132 47.6729V55.0574C20.5132 55.5782 20.0834 56 19.5533 56Z" fill="white"/>
<path d="M5.69367 56.0001C5.16351 56.0001 4.73367 55.5783 4.73367 55.0574V51.2529C4.73367 50.7321 5.16351 50.3103 5.69367 50.3103C6.22382 50.3103 6.65366 50.7321 6.65366 51.2529V55.0574C6.65366 55.5783 6.22382 56.0001 5.69367 56.0001Z" fill="white"/>
<path d="M32.6973 56.0001C32.1671 56.0001 31.7379 55.5783 31.7379 55.0574V51.2529C31.7379 50.7321 32.1671 50.3103 32.6973 50.3103C33.2274 50.3103 33.6567 50.7321 33.6567 51.2529V55.0574C33.6567 55.5783 33.2274 56.0001 32.6973 56.0001Z" fill="white"/>
<path d="M39.4322 29.9177C38.4168 29.9177 37.4775 29.5004 36.7871 28.7686C36.3634 28.936 35.905 29.023 35.4297 29.023C33.8774 29.023 32.5032 28.0198 31.9305 26.5531C31.0204 26.4154 30.182 25.9337 29.5723 25.1843C29.2416 24.7774 29.3089 24.1845 29.7225 23.8591C30.1383 23.5331 30.7413 23.6014 31.0719 24.0072C31.4284 24.446 31.9518 24.7075 32.4696 24.7075H32.6646C33.1275 24.7075 33.5232 25.0318 33.6084 25.4783C33.79 26.4397 34.5566 27.1367 35.4297 27.1367C35.822 27.1367 36.1706 27.0216 36.4643 26.7948C36.6862 26.6236 36.9709 26.5586 37.2477 26.612C37.5223 26.6671 37.76 26.8377 37.8967 27.0789C38.2341 27.6757 38.8079 28.0319 39.4322 28.0319C40.4634 28.0319 41.3029 27.0932 41.3029 25.9386C41.3029 25.4178 41.7322 24.9955 42.2624 24.9955C42.7925 24.9955 43.2218 25.4178 43.2218 25.9386C43.2218 28.1327 41.5215 29.9177 39.4322 29.9177ZM32.5357 9.33353C32.1838 9.33353 31.8442 9.14247 31.6761 8.81212C31.4396 8.34632 31.6312 7.77977 32.1053 7.54687C32.1883 7.50613 32.2735 7.46924 32.3587 7.43566C32.4506 5.37097 34.0489 3.71205 36.0238 3.64598C36.6335 2.27558 37.9415 1.37427 39.4322 1.37427C41.5215 1.37427 43.2218 3.15982 43.2218 5.3539C43.2218 5.87475 42.7925 6.29705 42.2624 6.29705C41.7322 6.29705 41.3029 5.87475 41.3029 5.3539C41.3029 4.19932 40.4634 3.26057 39.4322 3.26057C38.5793 3.26057 37.8407 3.91357 37.6367 4.84846C37.5302 5.34123 37.0505 5.66553 36.5405 5.58074C36.3556 5.5499 36.2592 5.53008 36.146 5.53008C35.1137 5.53008 34.2742 6.46883 34.2742 7.62341C34.2742 7.75885 34.2708 7.87172 34.2943 8.00717C34.3392 8.26319 34.2742 8.52637 34.115 8.73394C33.9558 8.94151 33.7171 9.0753 33.4537 9.10393C33.2508 9.12596 33.104 9.16504 32.9639 9.23387C32.826 9.3016 32.6792 9.33353 32.5357 9.33353Z" fill="white"/>
<path d="M42.2624 26.8818C41.7323 26.8818 41.303 26.4595 41.303 25.9386V5.35392C41.303 4.83306 41.7323 4.41077 42.2624 4.41077C42.7926 4.41077 43.2219 4.83306 43.2219 5.35392V25.9386C43.2219 26.4595 42.7926 26.8818 42.2624 26.8818Z" fill="white"/>
<path d="M33.4785 13.2333C33.3529 13.2333 33.2252 13.2091 33.1019 13.1574C33.0447 13.1337 32.9338 13.1051 32.7298 13.1051C32.1996 13.1051 31.7703 12.6828 31.7703 12.1619C31.7703 11.641 32.1996 11.2188 32.7298 11.2188C33.159 11.2188 33.5278 11.2859 33.8551 11.423C34.3426 11.6273 34.569 12.1812 34.3617 12.6602C34.2059 13.0186 33.8506 13.2333 33.4785 13.2333Z" fill="white"/>
<path d="M32.6637 26.5938C32.1985 26.5938 31.7905 26.2612 31.7166 25.796C31.6347 25.2818 31.9934 24.7994 32.5168 24.7191C33.2196 24.6111 33.7867 24.147 33.9963 23.5078C34.1589 23.0117 34.6957 22.7403 35.2046 22.8994C35.709 23.0591 35.9858 23.5904 35.8233 24.0859C35.3895 25.4073 34.2362 26.3642 32.8127 26.5822C32.7623 26.5899 32.713 26.5938 32.6637 26.5938Z" fill="white"/>
<path d="M42.2626 17.9639C41.8602 17.9639 41.4858 17.714 41.3525 17.3186C41.1205 16.637 40.458 16.1509 39.7026 16.1085C39.1736 16.0787 38.7689 15.6333 38.7992 15.113C38.8295 14.5927 39.2901 14.204 39.8124 14.2255C41.3457 14.3114 42.6963 15.3151 43.1727 16.7229C43.3408 17.2168 43.0685 17.7509 42.5663 17.9155C42.4655 17.9485 42.3635 17.9639 42.2626 17.9639Z" fill="white"/>
<path d="M37.2199 20.5848C37.1 20.5848 36.9778 20.5627 36.8601 20.5154C35.217 19.8624 33.9818 18.5366 33.4696 16.8782C33.3161 16.38 33.603 15.8536 34.1107 15.7027C34.6207 15.5519 35.1531 15.8343 35.3078 16.3321C35.6496 17.4415 36.4779 18.329 37.5797 18.7678C38.0718 18.9627 38.3083 19.5128 38.1099 19.9956C37.9586 20.3623 37.5988 20.5848 37.2199 20.5848Z" fill="white"/>
<path d="M33.902 20.0094C33.5647 20.0094 33.2374 19.8343 33.0614 19.5243C32.8048 19.069 32.9718 18.4947 33.4347 18.242C34.2114 17.8175 35.1305 17.6804 36.0092 17.8544C36.5293 17.9568 36.8666 18.4534 36.7624 18.9644C36.6582 19.4742 36.1437 19.8046 35.6326 19.7033C35.1921 19.6174 34.7449 19.6834 34.3672 19.8905C34.2192 19.9708 34.059 20.0094 33.902 20.0094Z" fill="white"/>
<path d="M39.0087 25.1876C38.6332 25.1876 38.2756 24.9691 38.1221 24.6068C37.9685 24.2434 37.7982 23.9158 37.6144 23.6317C37.3297 23.1923 37.4608 22.6098 37.908 22.3301C38.3563 22.051 38.9493 22.1803 39.2328 22.6197C39.4761 22.9941 39.6991 23.4192 39.8953 23.8822C40.0981 24.3629 39.8672 24.9151 39.3774 25.115C39.2564 25.1645 39.132 25.1876 39.0087 25.1876Z" fill="white"/>
<path d="M38.5547 6.90434C38.2218 6.90434 37.8979 6.73366 37.7208 6.42973C37.4653 5.99202 37.0214 5.67984 36.5036 5.57413C35.9847 5.46787 35.6506 4.96848 35.7594 4.45864C35.867 3.9488 36.3848 3.62395 36.8936 3.72746C37.9506 3.94329 38.8585 4.58693 39.3864 5.49264C39.6498 5.94467 39.4906 6.52058 39.03 6.77936C38.8798 6.86415 38.7161 6.90434 38.5547 6.90434Z" fill="white"/>
<path d="M38.9437 12.0506C38.8171 12.0506 38.6893 12.0258 38.566 11.9741C37.5012 11.5253 36.5586 10.7127 35.9141 9.68474C35.6362 9.24096 35.7763 8.6601 36.228 8.38701C36.6797 8.11282 37.2703 8.25212 37.5483 8.69479C37.981 9.38522 38.6277 9.94847 39.3215 10.2408C39.809 10.4462 40.0343 11.0001 39.8258 11.4791C39.67 11.8364 39.3159 12.0506 38.9437 12.0506Z" fill="white"/>
<path d="M37.286 12.5941C37.2434 12.5941 37.2009 12.5913 37.1583 12.5858C36.6326 12.517 36.2638 12.0424 36.3333 11.5265C36.4107 10.9555 36.5687 10.4126 36.803 9.91326C37.0249 9.44086 37.592 9.23109 38.0762 9.45187C38.5582 9.6699 38.7689 10.2298 38.547 10.7028C38.3923 11.0309 38.2881 11.3916 38.2365 11.7753C38.1715 12.2494 37.7601 12.5941 37.286 12.5941Z" fill="white"/>
<path d="M45.0926 29.9177C43.0033 29.9177 41.303 28.1327 41.303 25.9386C41.303 25.4178 41.7323 24.9955 42.2624 24.9955C42.7926 24.9955 43.2219 25.4178 43.2219 25.9386C43.2219 27.0932 44.0614 28.0319 45.0926 28.0319C45.7281 28.0319 46.3288 27.6669 46.6606 27.0789C46.7973 26.8377 47.035 26.667 47.3096 26.612C47.592 26.5613 47.8733 26.6252 48.093 26.7948C48.3867 27.0216 48.7353 27.1367 49.1264 27.1367C50.0007 27.1367 50.7673 26.4397 50.9489 25.4783C51.0341 25.0318 51.4297 24.7075 51.8927 24.7075H52.0877C53.1188 24.7075 53.9584 23.7688 53.9584 22.6142C53.9584 22.4738 53.9303 22.3339 53.9057 22.1941C53.853 21.8841 53.9617 21.5686 54.1937 21.3528C54.6174 20.9613 54.8696 20.3573 54.8696 19.7374C54.8696 18.9985 54.4997 18.2976 53.927 17.9518C53.7039 17.8164 53.5459 17.5967 53.491 17.344C53.4372 17.0913 53.4898 16.8275 53.6389 16.6145C53.9079 16.2307 54.0559 15.7732 54.0559 15.3267C54.0559 14.52 53.6109 13.752 52.9485 13.415C52.4923 13.1838 52.3029 12.6409 52.517 12.1828C52.675 11.8481 52.7546 11.5072 52.7546 11.1714C52.7546 10.0999 52.0294 9.21075 51.0677 9.10394C50.8066 9.07476 50.569 8.94096 50.4109 8.73504C50.2518 8.52857 50.1867 8.26704 50.2293 8.01212C50.2607 7.82878 50.282 7.73462 50.282 7.62341C50.282 6.46883 49.4425 5.53008 48.4113 5.53008C48.2825 5.53008 48.1536 5.55431 48.0448 5.57578C47.5304 5.67544 47.0294 5.35169 46.9195 4.84846C46.7189 3.92788 45.95 3.26057 45.0926 3.26057C44.0614 3.26057 43.2219 4.19932 43.2219 5.3539C43.2219 5.87475 42.7926 6.29705 42.2625 6.29705C41.7323 6.29705 41.303 5.87475 41.303 5.3539C41.303 3.15982 43.0033 1.37427 45.0926 1.37427C46.5709 1.37427 47.9092 2.29154 48.5279 3.64598C50.5095 3.70875 52.1135 5.37757 52.1975 7.45217C53.658 8.01377 54.6734 9.47502 54.6734 11.1714C54.6734 11.5199 54.6286 11.8668 54.5389 12.2092C55.43 12.9569 55.9747 14.1065 55.9747 15.3266C55.9747 15.8635 55.8615 16.4052 55.6475 16.9101C56.3659 17.638 56.7885 18.6577 56.7885 19.7374C56.7885 20.7053 56.4567 21.6319 55.8649 22.3499C55.8727 22.438 55.8772 22.5261 55.8772 22.6142C55.8772 24.6161 54.4616 26.2778 52.6268 26.5536C52.0541 28.0204 50.6788 29.023 49.1264 29.023C48.649 29.023 48.1894 28.9355 47.7646 28.7664C47.0675 29.4916 46.1058 29.9177 45.0926 29.9177Z" fill="white"/>
<path d="M53.3879 13.5207C53.2131 13.5207 53.0371 13.4739 52.8779 13.3753C52.2951 13.0147 51.5957 12.9998 51.0028 13.3324C50.5444 13.5912 49.9571 13.4337 49.6937 12.9817C49.4303 12.5296 49.5894 11.9537 50.0501 11.695C51.2673 11.0106 52.7065 11.0409 53.9002 11.7797C54.3485 12.0572 54.4841 12.6392 54.2017 13.0797C54.019 13.3643 53.7074 13.5207 53.3879 13.5207Z" fill="white"/>
<path d="M51.8939 26.5937C51.8468 26.5937 51.7997 26.5904 51.7515 26.5833C50.7585 26.4379 49.8853 25.9264 49.2924 25.1424C48.6984 24.3567 48.4529 23.3871 48.6009 22.4115C48.6782 21.8961 49.1635 21.5421 49.6914 21.6175C50.216 21.6941 50.578 22.1742 50.4996 22.689C50.3494 23.6789 51.0241 24.5703 52.034 24.7179C52.5585 24.7944 52.9206 25.2745 52.8421 25.7893C52.7715 26.2573 52.3613 26.5937 51.8939 26.5937Z" fill="white"/>
<path d="M42.2624 21.6397C42.1537 21.6397 42.0428 21.6215 41.9352 21.5829C41.4364 21.4051 41.1797 20.8639 41.3602 20.3744C41.8937 18.933 43.2331 17.9739 44.7731 17.932C45.3167 17.932 45.7449 18.3284 45.7595 18.8482C45.774 19.369 45.356 19.8029 44.8269 19.8172C44.0793 19.8376 43.427 20.3089 43.1647 21.0186C43.0224 21.4018 42.6547 21.6397 42.2624 21.6397Z" fill="white"/>
<path d="M48.5739 20.5847C48.2052 20.5847 47.8521 20.3738 47.6952 20.0198C47.4822 19.5424 47.703 18.9863 48.1895 18.7777C49.4538 18.2342 50.3191 17.0615 50.448 15.7175C50.4984 15.1994 50.977 14.8278 51.4937 14.8674C52.0216 14.9164 52.4094 15.3761 52.3601 15.8948C52.1651 17.9204 50.8616 19.6872 48.9584 20.5054C48.834 20.5593 48.7028 20.5847 48.5739 20.5847Z" fill="white"/>
<path d="M51.6315 20.0413C51.4801 20.0413 51.3277 20.0061 51.1842 19.9317C50.8514 19.7594 50.4176 19.7043 49.9592 19.7743C49.4357 19.8557 48.9448 19.5039 48.8619 18.9897C48.7801 18.4749 49.1376 17.9926 49.661 17.9111C50.5364 17.7762 51.3748 17.8979 52.0809 18.2645C52.5494 18.5079 52.7288 19.0783 52.481 19.5386C52.3096 19.8585 51.9767 20.0413 51.6315 20.0413Z" fill="white"/>
<path d="M45.9702 6.90434C45.7976 6.90434 45.6238 6.85864 45.4669 6.76284C45.0152 6.4892 44.8762 5.90833 45.1553 5.46511C45.7169 4.57206 46.6315 3.93889 47.6615 3.72746C48.1805 3.62395 48.6893 3.9488 48.7969 4.45864C48.9056 4.96848 48.5727 5.46786 48.0538 5.57413C47.536 5.67984 47.0742 6.00193 46.7873 6.45726C46.6057 6.74577 46.2919 6.90434 45.9702 6.90434Z" fill="white"/>
<path d="M45.6777 13.3611C45.5297 13.3611 45.3795 13.327 45.2383 13.2559C44.7675 13.0164 44.5826 12.4477 44.8258 11.9852C45.2002 11.2733 45.319 10.4353 45.1587 9.62427C45.059 9.11277 45.3986 8.61835 45.9186 8.51979C46.4432 8.41904 46.9442 8.75544 47.044 9.26639C47.2849 10.4914 47.1034 11.7644 46.5317 12.8507C46.3614 13.175 46.0251 13.3611 45.6777 13.3611Z" fill="white"/>
<path d="M46.1327 11.8905C45.6888 11.8905 45.2898 11.5855 45.1945 11.1411C45.0858 10.6319 45.4176 10.1319 45.9365 10.0246C46.4577 9.9172 46.933 9.73275 47.3488 9.47673C47.7982 9.20199 48.3889 9.33523 48.6714 9.7757C48.9527 10.2173 48.816 10.7992 48.3665 11.0756C47.759 11.4495 47.0742 11.7165 46.3311 11.8701C46.2649 11.8839 46.1977 11.8905 46.1327 11.8905Z" fill="white"/>
<path d="M45.5812 25.1876C45.4803 25.1876 45.3783 25.1722 45.2786 25.1392C44.7753 24.9745 44.503 24.441 44.6711 23.9466C44.8381 23.4527 45.0802 22.9902 45.3895 22.5712C45.7011 22.1506 46.3008 22.0553 46.7312 22.3631C47.1593 22.6692 47.2546 23.2589 46.943 23.6801C46.7514 23.9389 46.5956 24.2367 46.4913 24.5423C46.3579 24.9376 45.9836 25.1876 45.5812 25.1876Z" fill="white"/>
</svg>
