<svg width="38" height="47" viewBox="0 0 38 47" fill="none" xmlns="http://www.w3.org/2000/svg">
<path d="M22.9444 8.00444H14.6871C13.1579 8.00444 11.914 6.66198 11.914 5.0115C11.914 3.36138 13.1579 2.01929 14.6871 2.01929H22.9444C24.4733 2.01929 25.7168 3.36138 25.7168 5.0115C25.7168 6.66161 24.4733 8.00444 22.9444 8.00444ZM14.6871 3.42873C13.9394 3.42873 13.3307 4.13897 13.3307 5.0115C13.3307 5.88476 13.9394 6.595 14.6871 6.595H22.9444C23.6922 6.595 24.3001 5.88476 24.3001 5.0115C24.3001 4.1386 23.6918 3.42873 22.9444 3.42873H14.6871Z" fill="white"/>
<path d="M28.3741 35.1391H9.25662C7.19831 35.1391 5.52332 33.4739 5.52332 31.4264V8.02012C5.52332 5.97294 7.19794 4.30737 9.25662 4.30737H13.021V5.71681H9.25662C7.97938 5.71681 6.94042 6.75016 6.94042 8.02012V31.4264C6.94042 32.696 7.97975 33.7297 9.25662 33.7297H28.3741C29.6514 33.7297 30.6911 32.696 30.6911 31.4264V8.02012C30.6911 6.75016 29.6514 5.71681 28.3741 5.71681H24.6098V4.30737H28.3741C30.4328 4.30737 32.1078 5.97294 32.1078 8.02012V31.4264C32.1078 33.4739 30.4328 35.1391 28.3741 35.1391Z" fill="white"/>
<path d="M26.394 18.2915H11.2369C10.8458 18.2915 10.5284 18.6069 10.5284 18.9962C10.5284 19.3859 10.8455 19.7009 11.2369 19.7009H26.3947C26.7862 19.7009 27.1029 19.3859 27.1029 18.9962C27.1029 18.6072 26.7858 18.2915 26.394 18.2915Z" fill="white"/>
<path d="M26.394 23.0608H11.2369C10.8458 23.0608 10.5284 23.3762 10.5284 23.7655C10.5284 24.1549 10.8455 24.4699 11.2369 24.4699H26.3947C26.7862 24.4699 27.1029 24.1549 27.1029 23.7655C27.1029 23.3762 26.7858 23.0608 26.394 23.0608Z" fill="white"/>
<path d="M26.394 27.8303H11.2369C10.8458 27.8303 10.5284 28.1457 10.5284 28.5354C10.5284 28.9244 10.8455 29.2398 11.2369 29.2398H26.3947C26.7862 29.2398 27.1029 28.9244 27.1029 28.5354C27.1029 28.1457 26.7858 27.8303 26.394 27.8303Z" fill="white"/>
<path d="M22.1812 11.0668H20.558V9.45235C20.558 9.18003 20.3353 8.95923 20.0619 8.95923H17.5692C17.295 8.95923 17.0734 9.18003 17.0734 9.45235V11.0668H15.4502C15.176 11.0668 14.9544 11.2876 14.9544 11.5599V14.0391C14.9544 14.3118 15.1764 14.5322 15.4502 14.5322H17.0734V16.147C17.0734 16.4193 17.2954 16.6401 17.5692 16.6401H20.0619C20.3353 16.6401 20.558 16.4193 20.558 16.147V14.5322H22.1812C22.455 14.5322 22.6778 14.3114 22.6778 14.0391V11.5599C22.6778 11.2876 22.455 11.0668 22.1812 11.0668ZM21.685 13.546H20.0885C19.801 13.546 19.5661 13.7789 19.5661 14.0652V15.6539H18.0657V14.0652C18.0657 13.7789 17.8315 13.546 17.5436 13.546H15.9467V12.0534H17.5436C17.8315 12.0534 18.0657 11.8208 18.0657 11.5345V9.94584H19.5661V11.5345C19.5661 11.8208 19.801 12.0534 20.0885 12.0534H21.685V13.546Z" fill="white"/>
</svg>
