<svg width="9" height="9" viewBox="0 0 9 9" fill="none" xmlns="http://www.w3.org/2000/svg">
<g clip-path="url(#clip0_1_386)">
<path d="M8.41183 1.80242C8.11651 1.93196 7.80184 2.01782 7.47377 2.05951C7.81127 1.85801 8.06887 1.54135 8.18997 1.15968C7.8753 1.34729 7.52787 1.47981 7.15762 1.55376C6.85883 1.23561 6.43298 1.03857 5.96842 1.03857C5.0671 1.03857 4.34147 1.77016 4.34147 2.66701C4.34147 2.79606 4.35239 2.92014 4.37919 3.03826C3.02572 2.97225 1.82809 2.32356 1.02355 1.33538C0.883087 1.57907 0.800698 1.85801 0.800698 2.15828C0.800698 2.72211 1.09105 3.2219 1.52384 3.51126C1.26228 3.5063 1.00568 3.43036 0.788289 3.31075C0.788289 3.31571 0.788289 3.32216 0.788289 3.32861C0.788289 4.11975 1.35261 4.77689 2.09263 4.92827C1.96011 4.9645 1.81568 4.98187 1.66579 4.98187C1.56156 4.98187 1.45634 4.97591 1.35757 4.95407C1.56851 5.5988 2.16708 6.07279 2.87881 6.08818C2.32491 6.52147 1.62162 6.78253 0.860256 6.78253C0.726745 6.78253 0.598694 6.77658 0.470642 6.7602C1.1918 7.22525 2.04647 7.49079 2.96814 7.49079C5.96396 7.49079 7.60183 5.00917 7.60183 2.8581C7.60183 2.78613 7.59934 2.71665 7.59587 2.64766C7.91898 2.41836 8.19047 2.13198 8.41183 1.80242Z" fill="white"/>
</g>
<defs>
<clipPath id="clip0_1_386">
<rect width="7.94118" height="7.94118" fill="white" transform="translate(0.470642 0.294067)"/>
</clipPath>
</defs>
</svg>
