<svg width="41" height="24" viewBox="0 0 41 24" fill="none" xmlns="http://www.w3.org/2000/svg">
<path d="M39.2408 3.22084C38.2748 2.66964 37.0568 2.62724 36.0908 3.22084L31.5128 5.84964V4.78964C31.5128 2.62724 29.7488 0.846436 27.6068 0.846436H4.80079C2.65879 0.846436 0.894791 2.62724 0.894791 4.78964V19.9264C0.894791 22.0888 2.65879 23.8696 4.80079 23.8696H27.6068C29.7488 23.8696 31.5128 22.0888 31.5128 19.9264V18.8664L36.0908 21.4952C36.5948 21.792 37.1408 21.9192 37.6448 21.9192C38.1908 21.9192 38.7368 21.792 39.1988 21.4952C40.1648 20.9016 40.7528 19.884 40.7528 18.7392V5.97684C40.7948 4.83204 40.2068 3.81444 39.2408 3.22084ZM28.7828 19.9688C28.7828 20.6048 28.2368 21.156 27.6068 21.156H4.80079C4.17079 21.156 3.62479 20.6048 3.62479 19.9688V4.78964C3.62479 4.15364 4.17079 3.60244 4.80079 3.60244H27.6068C28.2368 3.60244 28.7828 4.15364 28.7828 4.78964V19.9688ZM38.0648 18.7816C38.0648 18.9936 37.9388 19.0784 37.8548 19.1632C37.7708 19.2056 37.6448 19.248 37.4348 19.1632L31.5128 15.7288V9.07204L37.4348 5.59524C37.6028 5.51044 37.7708 5.55284 37.8548 5.59524C37.9388 5.63764 38.0648 5.76484 38.0648 5.97684V18.7816Z" fill="white"/>
<path d="M20.6768 11.1072L14.1668 7.24884C13.2008 6.65524 11.9828 7.37604 11.9828 8.52084V16.2376C11.9828 17.3824 13.2008 18.0608 14.1668 17.5096L20.6768 13.6512C21.6428 13.0576 21.6428 11.7008 20.6768 11.1072Z" fill="white"/>
</svg>
