<svg width="8" height="9" viewBox="0 0 8 9" fill="none" xmlns="http://www.w3.org/2000/svg">
<g clip-path="url(#clip0_1_378)">
<path d="M7.2405 2.36915C6.97295 2.05112 6.479 1.92139 5.53564 1.92139H2.11129C1.14634 1.92139 0.644018 2.05948 0.377481 2.39808C0.117615 2.72822 0.117615 3.21465 0.117615 3.88787V5.17104C0.117615 6.4753 0.425945 7.13751 2.11129 7.13751H5.53567C6.35374 7.13751 6.80705 7.02303 7.10032 6.74236C7.40107 6.45455 7.52939 5.98462 7.52939 5.17104V3.88787C7.52939 3.1779 7.50928 2.6886 7.2405 2.36915ZM4.876 4.70661L3.32101 5.5193C3.28624 5.53747 3.24823 5.54648 3.21026 5.54648C3.16727 5.54648 3.12438 5.53491 3.08639 5.51191C3.01485 5.46856 2.97117 5.39103 2.97117 5.3074V3.68723C2.97117 3.60374 3.01473 3.52627 3.08613 3.4829C3.15754 3.43953 3.24636 3.43657 3.32046 3.47506L4.87545 4.28251C4.95456 4.32359 5.00424 4.40526 5.00436 4.49437C5.00446 4.58355 4.95499 4.66534 4.876 4.70661Z" fill="white"/>
</g>
<defs>
<clipPath id="clip0_1_378">
<rect width="7.41177" height="7.41177" fill="white" transform="translate(0.117615 0.823486)"/>
</clipPath>
</defs>
</svg>
