<svg width="9" height="9" viewBox="0 0 9 9" fill="none" xmlns="http://www.w3.org/2000/svg">
<g clip-path="url(#clip0_1_383)">
<path d="M6.32326 0.825028L5.36212 0.823486C4.28233 0.823486 3.58451 1.53943 3.58451 2.64753V3.48854H2.61814C2.53463 3.48854 2.46701 3.55624 2.46701 3.63975V4.85827C2.46701 4.94178 2.53471 5.0094 2.61814 5.0094H3.58451V8.08413C3.58451 8.16764 3.65214 8.23526 3.73564 8.23526H4.99649C5.07999 8.23526 5.14761 8.16756 5.14761 8.08413V5.0094H6.27753C6.36104 5.0094 6.42866 4.94178 6.42866 4.85827L6.42912 3.63975C6.42912 3.59965 6.41316 3.56125 6.38486 3.53288C6.35657 3.5045 6.31801 3.48854 6.27792 3.48854H5.14761V2.77561C5.14761 2.43294 5.22927 2.25899 5.67564 2.25899L6.3231 2.25876C6.40653 2.25876 6.47415 2.19106 6.47415 2.10763V0.976159C6.47415 0.892806 6.40661 0.825183 6.32326 0.825028Z" fill="white"/>
</g>
<defs>
<clipPath id="clip0_1_383">
<rect width="7.41177" height="7.41177" fill="white" transform="translate(0.764709 0.823486)"/>
</clipPath>
</defs>
</svg>
