<svg width="58" height="72" viewBox="0 0 58 72" fill="none" xmlns="http://www.w3.org/2000/svg">
<g clip-path="url(#clip0_1_207)">
<path d="M35.3438 41.8501C35.8443 41.8501 36.25 41.4471 36.25 40.9501C36.25 40.453 35.8443 40.05 35.3438 40.05C34.8432 40.05 34.4375 40.453 34.4375 40.9501C34.4375 41.4471 34.8432 41.8501 35.3438 41.8501Z" fill="white"/>
<path d="M35.3438 45.45C35.8443 45.45 36.25 45.0471 36.25 44.55C36.25 44.053 35.8443 43.65 35.3438 43.65C34.8432 43.65 34.4375 44.053 34.4375 44.55C34.4375 45.0471 34.8432 45.45 35.3438 45.45Z" fill="white"/>
<path d="M35.3438 49.05C35.8443 49.05 36.25 48.6471 36.25 48.15C36.25 47.6529 35.8443 47.25 35.3438 47.25C34.8432 47.25 34.4375 47.6529 34.4375 48.15C34.4375 48.6471 34.8432 49.05 35.3438 49.05Z" fill="white"/>
<path d="M35.3438 52.65C35.8443 52.65 36.25 52.247 36.25 51.75C36.25 51.2529 35.8443 50.85 35.3438 50.85C34.8432 50.85 34.4375 51.2529 34.4375 51.75C34.4375 52.247 34.8432 52.65 35.3438 52.65Z" fill="white"/>
<path d="M53.4688 37.8H41.6875C41.4471 37.8 41.2166 37.8949 41.0467 38.0637C40.8767 38.2324 40.7812 38.4614 40.7812 38.7V47.808C40.7818 47.9852 40.8349 48.1583 40.9341 48.3056C41.0332 48.4529 41.1739 48.5678 41.3386 48.636L47.5781 51.228C47.6937 51.2789 47.8187 51.3052 47.9452 51.3052C48.0716 51.3052 48.1966 51.2789 48.3122 51.228L53.8539 48.6C54.0097 48.5274 54.1414 48.4123 54.2337 48.268C54.3259 48.1238 54.375 47.9564 54.375 47.7856V38.7C54.375 38.4614 54.2795 38.2324 54.1096 38.0637C53.9396 37.8949 53.7091 37.8 53.4688 37.8ZM52.5625 47.25L47.8908 49.428L42.5938 47.2095V39.6H52.5625V47.25Z" fill="white"/>
<path d="M45.3125 45H46.6719V46.35C46.6719 46.5886 46.7674 46.8176 46.9373 46.9863C47.1073 47.1551 47.3378 47.25 47.5781 47.25C47.8185 47.25 48.049 47.1551 48.2189 46.9863C48.3889 46.8176 48.4844 46.5886 48.4844 46.35V45H49.8438C50.0841 45 50.3146 44.9051 50.4846 44.7363C50.6545 44.5676 50.75 44.3386 50.75 44.1C50.75 43.8613 50.6545 43.6323 50.4846 43.4636C50.3146 43.2948 50.0841 43.2 49.8438 43.2H48.4844V41.85C48.4844 41.6113 48.3889 41.3823 48.2189 41.2136C48.049 41.0448 47.8185 40.95 47.5781 40.95C47.3378 40.95 47.1073 41.0448 46.9373 41.2136C46.7674 41.3823 46.6719 41.6113 46.6719 41.85V43.2H45.3125C45.0721 43.2 44.8416 43.2948 44.6717 43.4636C44.5017 43.6323 44.4062 43.8613 44.4062 44.1C44.4062 44.3386 44.5017 44.5676 44.6717 44.7363C44.8416 44.9051 45.0721 45 45.3125 45Z" fill="white"/>
<path d="M58 38.025C58 29.6865 51.765 23.445 44.3836 20.97L44.1163 20.034C44.1052 19.9714 44.0733 19.9143 44.0257 19.8719C43.978 19.8294 43.9173 19.8041 43.8535 19.8C43.7839 19.8033 43.7172 19.8285 43.6631 19.872L38.1894 23.922C38.0997 23.9872 38.0372 24.0827 38.0139 24.1906C37.9905 24.2984 38.0078 24.411 38.0625 24.507L39.5941 26.757L35.3438 38.043C35.3075 38.178 35.3438 38.25 35.371 38.25C35.3981 38.25 35.4571 38.214 35.5205 38.142L43.8081 30.7755C43.8863 30.6772 43.9371 30.5601 43.9553 30.4361C43.9736 30.3121 43.9588 30.1856 43.9124 30.069L42.4896 26.919L45.9152 27.693H46.0013C46.1689 27.693 46.2596 27.558 46.2006 27.36L44.9772 23.0805C51.1669 25.5825 56.1875 30.9735 56.1875 38.0295C56.1875 38.0295 56.1875 53.7795 56.1875 56.7045C56.1875 56.9432 56.283 57.1722 56.453 57.3409C56.6229 57.5097 56.8534 57.6045 57.0938 57.6045C57.3341 57.6045 57.5646 57.5097 57.7346 57.3409C57.9045 57.1722 58 56.9432 58 56.7045C58 53.775 58 38.025 58 38.025ZM39.4899 32.2065L41.035 28.098L41.9413 30.0465L39.4899 32.2065ZM42.8974 25.1775C42.5761 25.1048 42.241 25.1205 41.928 25.2227C41.6151 25.325 41.3361 25.5101 41.1211 25.758L40.3281 24.57L42.9789 22.617L43.7628 25.3665L42.8974 25.1775Z" fill="white"/>
<path d="M35.3437 21.6C37.4946 21.6 39.5972 20.9666 41.3856 19.7799C43.174 18.5932 44.5678 16.9064 45.3909 14.933C46.214 12.9595 46.4294 10.788 46.0098 8.69303C45.5902 6.59804 44.5544 4.67366 43.0335 3.16325C41.5126 1.65284 39.5749 0.624244 37.4654 0.207524C35.3558 -0.209197 33.1692 0.00467949 31.1821 0.822106C29.1949 1.63953 27.4965 3.0238 26.3015 4.79985C25.1066 6.5759 24.4688 8.66397 24.4688 10.8C24.4688 13.6643 25.6145 16.4114 27.654 18.4368C29.6934 20.4622 32.4595 21.6 35.3437 21.6ZM35.3437 1.8C37.1361 1.8 38.8883 2.32785 40.3786 3.31678C41.8689 4.30571 43.0305 5.71132 43.7164 7.35585C44.4023 9.00039 44.5818 10.81 44.2321 12.5558C43.8824 14.3016 43.0193 15.9053 41.7519 17.164C40.4845 18.4226 38.8697 19.2798 37.1118 19.6271C35.3538 19.9743 33.5316 19.7961 31.8757 19.1149C30.2197 18.4337 28.8044 17.2802 27.8086 15.8001C26.8128 14.3201 26.2812 12.58 26.2812 10.8C26.2812 8.41306 27.236 6.12387 28.9356 4.43604C30.6351 2.74822 32.9402 1.8 35.3437 1.8Z" fill="white"/>
<path d="M23.5625 51.3H10.875C10.6346 51.3 10.4041 51.3949 10.2342 51.5637C10.0642 51.7324 9.96875 51.9614 9.96875 52.2001C9.96875 52.4387 10.0642 52.6677 10.2342 52.8364C10.4041 53.0052 10.6346 53.1001 10.875 53.1001H23.5625C23.8029 53.1001 24.0334 53.0052 24.2033 52.8364C24.3733 52.6677 24.4688 52.4387 24.4688 52.2001C24.4688 51.9614 24.3733 51.7324 24.2033 51.5637C24.0334 51.3949 23.8029 51.3 23.5625 51.3Z" fill="white"/>
<path d="M15.4062 49.5H19.0312C19.2716 49.5 19.5021 49.4051 19.6721 49.2363C19.842 49.0676 19.9375 48.8386 19.9375 48.6C19.9375 48.3613 19.842 48.1323 19.6721 47.9636C19.5021 47.7948 19.2716 47.7 19.0312 47.7H15.4062C15.1659 47.7 14.9354 47.7948 14.7654 47.9636C14.5955 48.1323 14.5 48.3613 14.5 48.6C14.5 48.8386 14.5955 49.0676 14.7654 49.2363C14.9354 49.4051 15.1659 49.5 15.4062 49.5Z" fill="white"/>
<path d="M29.8427 32.526C31.3699 33.3245 32.5285 34.6766 33.078 36.3015L35.1488 38.1465C35.2122 38.2185 35.262 38.2545 35.2983 38.2545C35.3345 38.2545 35.3617 38.1825 35.3255 38.0475L31.0842 26.748L32.6158 24.498C32.6787 24.4034 32.7033 24.2888 32.6848 24.1771C32.6663 24.0653 32.6061 23.9646 32.5161 23.8949L27.0424 19.8449C26.9884 19.8011 26.9217 19.7758 26.852 19.7729C26.7874 19.7761 26.7257 19.8009 26.6771 19.8434C26.6285 19.886 26.5959 19.9436 26.5847 20.0069L26.3174 20.9384C24.5074 21.5417 22.781 22.3687 21.1789 23.4C21.9801 23.4812 22.7535 23.7363 23.4445 24.147C24.1847 23.7415 24.9489 23.3808 25.7328 23.0669L25.0124 25.533C25.482 26.0915 25.8625 26.7183 26.1406 27.3915L28.1933 26.9415L27.3414 28.8C28.5666 29.7335 29.4462 31.0437 29.8427 32.526ZM31.202 32.2065L28.7733 30.042L29.6569 28.0935L31.202 32.2065ZM27.7945 25.173L26.9472 25.3665L27.7311 22.6169L30.3592 24.57L29.5844 25.74C29.3694 25.492 29.0904 25.3069 28.7775 25.2047C28.4645 25.1024 28.1294 25.0867 27.8081 25.1595L27.7945 25.173Z" fill="white"/>
<path d="M34.4376 42.3C34.4376 41.5839 34.1512 40.8971 33.6413 40.3908C33.1315 39.8844 32.4399 39.6 31.7189 39.6H31.6781C31.7041 39.3759 31.7177 39.1505 31.7189 38.925C31.7189 36.423 30.2326 34.326 28.2661 33.8535C27.9897 31.716 26.6212 30.0015 24.8676 29.5785C24.5459 27.1035 22.7651 25.2 20.6173 25.2C19.9255 25.2213 19.2506 25.4171 18.656 25.769C18.0615 26.1209 17.5669 26.6173 17.2189 27.2115C16.8708 26.6173 16.3763 26.1209 15.7817 25.769C15.1872 25.4171 14.5122 25.2213 13.8204 25.2C11.6726 25.2 9.89185 27.1035 9.57013 29.5785C7.81653 30.0015 6.4481 31.716 6.17169 33.8535C4.20513 34.326 2.71888 36.423 2.71888 38.925C2.71986 39.1505 2.73348 39.3759 2.75966 39.6H2.71888C2.0532 39.6028 1.41172 39.8482 0.916026 40.2894C0.420334 40.7307 0.104885 41.3372 0.0294715 41.9941C-0.0459415 42.6509 0.123923 43.3124 0.506867 43.8531C0.889812 44.3939 1.45922 44.7763 2.10716 44.9279L3.88341 54.9C4.09185 56.4255 5.30169 57.6 6.62935 57.6H27.8084C29.1361 57.6 30.3414 56.403 30.5272 54.9L32.3079 44.9145C32.9084 44.7821 33.4459 44.4515 33.8327 43.9767C34.2195 43.5018 34.4328 42.9107 34.4376 42.3ZM29.9064 38.925C29.9051 39.151 29.8869 39.3766 29.852 39.6H24.9764C24.9412 39.3766 24.923 39.151 24.922 38.925C24.922 37.062 26.0412 35.55 27.4142 35.55C28.7872 35.55 29.9064 37.062 29.9064 38.925ZM11.3826 39.6C11.3475 39.3766 11.3293 39.151 11.3283 38.925C11.3283 37.062 12.4475 35.55 13.8204 35.55C15.1934 35.55 16.3126 37.062 16.3126 38.925C16.3118 39.151 16.2936 39.3766 16.2583 39.6H11.3826ZM17.2189 31.275C18.4015 31.275 19.3893 32.3955 19.6431 33.8895C18.6316 34.1978 17.769 34.8638 17.2189 35.7615C16.6691 34.8636 15.8064 34.1974 14.7947 33.8895C15.0484 32.4 16.0408 31.275 17.2189 31.275ZM18.1795 39.6C18.1442 39.3766 18.126 39.151 18.1251 38.925C18.1251 37.062 19.2443 35.55 20.6173 35.55C21.9903 35.55 23.1095 37.062 23.1095 38.925C23.1082 39.151 23.09 39.3766 23.0551 39.6H18.1795ZM26.44 33.8895C25.4284 34.1978 24.5659 34.8638 24.0158 35.7615C23.4656 34.8638 22.6031 34.1978 21.5915 33.8895C21.8453 32.4 22.8376 31.275 24.0158 31.275C25.1939 31.275 26.1862 32.4 26.44 33.8895ZM20.6173 27C21.8 27 22.7878 28.1205 23.0461 29.6145C22.0309 29.9255 21.1664 30.5967 20.6173 31.5C20.0672 30.6023 19.2046 29.9363 18.1931 29.6279C18.4468 28.1204 19.4392 27 20.6173 27ZM13.8204 27C14.9986 27 15.9909 28.1205 16.2447 29.6145C15.2311 29.9265 14.3684 30.5975 13.8204 31.5C13.2692 30.6015 12.4049 29.9353 11.3917 29.6279C11.65 28.1204 12.6423 27 13.8204 27ZM10.422 31.275C11.6047 31.275 12.5925 32.3955 12.8508 33.8895C11.8377 34.1972 10.9736 34.8633 10.422 35.7615C9.8725 34.8633 9.00972 34.197 7.99778 33.8895C8.25153 32.4 9.24388 31.275 10.422 31.275ZM4.53138 38.925C4.53138 37.062 5.6506 35.55 7.02357 35.55C8.39653 35.55 9.51575 37.062 9.51575 38.925C9.5149 39.151 9.49672 39.3766 9.46138 39.6H4.58575C4.55041 39.3766 4.53223 39.151 4.53138 38.925ZM28.76 54.6345C28.6693 55.3005 28.18 55.8 27.8084 55.8H6.62935C6.25779 55.8 5.77294 55.3005 5.67325 54.5985L3.96044 45H30.4773L28.76 54.6345ZM31.7189 43.2H2.71888C2.47853 43.2 2.24802 43.1051 2.07806 42.9363C1.90811 42.7676 1.81263 42.5386 1.81263 42.3C1.81263 42.0613 1.90811 41.8323 2.07806 41.6636C2.24802 41.4948 2.47853 41.4 2.71888 41.4H31.7189C31.9592 41.4 32.1897 41.4948 32.3597 41.6636C32.5297 41.8323 32.6251 42.0613 32.6251 42.3C32.6251 42.5386 32.5297 42.7676 32.3597 42.9363C32.1897 43.1051 31.9592 43.2 31.7189 43.2Z" fill="white"/>
<path d="M21.3467 17.919C22.6744 15.876 22.9961 13.419 22.3028 10.5885C22.253 10.3816 22.131 10.199 21.9585 10.073C21.7859 9.94693 21.574 9.88565 21.3603 9.9C21.1882 9.9 17.3638 10.2105 14.8353 12.888C15.051 13.6726 15.2025 14.4732 15.2885 15.282C15.4091 15.0636 15.5438 14.8532 15.6917 14.652C17.11 12.7395 19.4753 12.051 20.6761 11.8125C21.0511 13.5669 20.7366 15.3973 19.7971 16.929C18.5736 18.8145 16.4938 19.827 15.1208 20.3175C15.0211 20.9415 14.8927 21.5775 14.7357 22.2255C14.7357 22.266 14.7085 22.302 14.6994 22.338C16.1041 21.9735 19.4617 20.817 21.3467 17.919Z" fill="white"/>
<path d="M12.0757 22.5H12.1256C12.3294 22.5006 12.5274 22.433 12.6877 22.308C12.848 22.1831 12.9613 22.0082 13.0092 21.8115C14.1375 17.1315 13.639 13.14 11.5275 9.94497C8.12901 4.80597 1.81245 3.65847 1.56323 3.59997C1.32852 3.56061 1.08763 3.61453 0.89262 3.7501C0.697611 3.88566 0.564139 4.09198 0.521045 4.32447C-0.607236 9.89997 0.099639 14.4 2.61901 17.613C6.13073 22.1175 11.8356 22.5 12.0757 22.5ZM2.10698 5.59797C3.83792 6.07947 7.7212 7.49697 9.99136 10.9305C11.5365 13.2345 12.0757 16.065 11.6271 19.35L9.36151 16.1235C9.22391 15.9277 9.01365 15.7943 8.77699 15.7525C8.54033 15.7108 8.29665 15.7641 8.09956 15.9007C7.90247 16.0374 7.76812 16.2462 7.72605 16.4812C7.68399 16.7162 7.73766 16.9582 7.87526 17.154L10.091 20.304C7.71315 19.718 5.59064 18.3822 4.04183 16.497C2.00276 13.869 1.35933 10.206 2.12511 5.59797H2.10698Z" fill="white"/>
<path d="M6.34375 14.4C6.84426 14.4 7.25 13.997 7.25 13.5C7.25 13.0029 6.84426 12.6 6.34375 12.6C5.84324 12.6 5.4375 13.0029 5.4375 13.5C5.4375 13.997 5.84324 14.4 6.34375 14.4Z" fill="white"/>
</g>
<defs>
<clipPath id="clip0_1_207">
<rect width="58" height="72" fill="white"/>
</clipPath>
</defs>
</svg>
