<svg width="48" height="61" viewBox="0 0 48 61" fill="none" xmlns="http://www.w3.org/2000/svg">
<path d="M14.3083 22.4528C14.2386 22.3301 14.1731 22.2062 14.1097 22.0792C13.6396 21.1312 13.3733 20.0796 13.3321 19.0227C13.329 18.9298 13.3268 18.8369 13.3268 18.7441C13.3237 15.1783 13.3237 11.6116 13.3268 8.04477C13.33 6.85548 13.6174 5.6662 14.1614 4.60822C14.8798 3.21183 16.0483 2.0535 17.4502 1.3553C18.4327 0.865284 19.5272 0.599456 20.6185 0.58451C20.6492 0.58451 20.6798 0.583442 20.7104 0.583442C22.8308 0.582375 24.9521 0.582375 27.0725 0.583442C28.2462 0.586645 29.4252 0.875959 30.4732 1.42683C31.816 2.1325 32.9326 3.26521 33.6267 4.6189C34.1529 5.64485 34.4392 6.7925 34.455 7.95296C34.4561 7.98392 34.4561 8.01381 34.4561 8.04477C34.4582 11.6116 34.4582 15.1783 34.4561 18.7441C34.4529 20.0305 34.1106 21.3244 33.4736 22.4528C36.5246 24.3489 39.5778 26.2417 42.6246 28.1431C44.0899 29.059 45.2975 30.3796 46.0845 31.9298C46.7712 33.2803 47.1315 34.7994 47.1336 36.3068C47.1378 43.26 47.1336 50.2132 47.1336 57.1663C47.1325 57.983 46.8135 58.7869 46.2588 59.3751C45.682 59.9869 44.8654 60.3541 44.0149 60.368C44.0012 60.368 43.9874 60.368 43.9737 60.368C30.5884 60.3883 17.203 60.368 3.81764 60.368C2.98092 60.3669 2.15266 60.0178 1.56421 59.4168C1.01591 58.8552 0.684178 58.0866 0.652484 57.2987C0.650371 57.2581 0.649316 57.2165 0.649316 57.1759C0.638751 50.2164 0.637694 43.2568 0.649316 36.2962C0.653541 34.6062 1.10676 32.9194 1.9551 31.4568C2.72526 30.1288 3.8187 28.995 5.09173 28.1847C5.1192 28.1676 5.14667 28.1505 5.17414 28.1334L14.3083 22.4528V22.4528ZM15.6236 24.1418C14.5059 24.8368 13.3881 25.5317 12.2704 26.2257V32.6621C13.3554 32.8159 14.3939 33.3123 15.1989 34.0884C16.062 34.9211 16.6315 36.0517 16.7878 37.2495C16.7994 37.3317 16.8079 37.415 16.8153 37.4983C17.0297 40.0818 17.2463 42.6664 17.4544 45.2521C17.502 45.8702 17.2727 46.5012 16.8364 46.9378C16.4455 47.3296 15.8993 47.557 15.3489 47.557H14.3833C14.2914 47.5527 14.2682 47.5549 14.1773 47.5367C13.8054 47.462 13.4843 47.1716 13.3723 46.8001C13.2518 46.3987 13.3871 45.9354 13.7135 45.6642C13.873 45.5318 14.0727 45.4475 14.2798 45.4272C14.3146 45.424 14.3484 45.424 14.3833 45.4219C14.7045 45.4219 15.0267 45.4229 15.3479 45.4219C15.1471 42.8383 14.9284 40.2558 14.7087 37.6733C14.659 37.0969 14.453 36.5332 14.115 36.0656C13.5582 35.2926 12.6507 34.793 11.6967 34.7492C11.6492 34.7471 11.6027 34.746 11.5562 34.746C11.327 34.746 11.0967 34.746 10.8663 34.746C10.1247 34.7492 9.38625 35.0247 8.8221 35.5104C8.19245 36.0528 7.78782 36.8556 7.71809 37.6787C7.50363 40.259 7.28917 42.8404 7.07999 45.4219H8.04454L8.14807 45.4272C8.18188 45.4325 8.21674 45.4357 8.25055 45.4432C8.55587 45.5041 8.82949 45.709 8.97634 45.9866C9.13903 46.2941 9.13903 46.6848 8.97634 46.9933C8.82949 47.2698 8.55587 47.4759 8.25055 47.5367C8.15969 47.5549 8.13645 47.5527 8.04454 47.557C7.72126 47.557 7.39693 47.5581 7.07365 47.557C6.52429 47.5549 5.98127 47.3286 5.59144 46.9378C5.15723 46.5022 4.92587 45.8702 4.97341 45.2521C5.18259 42.6664 5.39705 40.0818 5.61257 37.4983C5.72138 36.2182 6.29821 34.9916 7.21733 34.0991C8.01602 33.3251 9.05452 32.8169 10.1575 32.6611V27.5388C8.86013 28.3448 7.56385 29.1519 6.26863 29.9601C4.71563 30.9305 3.53557 32.5031 3.03692 34.2966C2.85626 34.9478 2.76435 35.6247 2.76224 36.3004C2.75062 43.2579 2.72843 50.2153 2.76224 57.1727C2.76541 57.6019 3.04748 58.0193 3.45844 58.1698C3.57149 58.2115 3.69087 58.2318 3.8113 58.2328C17.1977 58.2947 30.5852 58.2947 43.9716 58.2328C44.3118 58.2307 44.6435 58.0524 44.8368 57.7674C44.9552 57.5923 45.0196 57.3809 45.0207 57.1695C45.0312 50.2132 45.0291 43.2568 45.0207 36.3015C45.0164 35.0471 44.6995 33.8098 44.1089 32.7219C43.5068 31.6116 42.6236 30.6647 41.565 29.9921C41.5439 29.9782 41.5227 29.9643 41.5005 29.9515L37.6254 27.5409V36.0005C38.0501 36.1531 38.4431 36.3944 38.7696 36.7115C39.245 37.1759 39.5725 37.7929 39.6887 38.4505C39.8398 39.3025 39.6317 40.2121 39.1246 40.9103C38.6587 41.5508 37.9508 42.0077 37.1775 42.1604C36.3609 42.3216 35.4851 42.1422 34.7962 41.6714C34.062 41.1697 33.5507 40.3487 33.4292 39.453C33.3214 38.6577 33.5211 37.8217 33.9849 37.162C34.3599 36.6293 34.9019 36.2214 35.5125 36.0005V26.2278L32.1604 24.1428C31.6723 24.6136 31.1198 25.0172 30.5229 25.3364C30.4035 25.4004 30.283 25.4602 30.1605 25.5179C30.1563 25.5275 30.1531 25.5382 30.1489 25.5488L24.8666 38.3598C24.8518 38.3908 24.838 38.4239 24.8222 38.4538C24.6426 38.7922 24.2749 39.0164 23.8914 39.0164C23.5122 39.0164 23.1424 38.7954 22.9607 38.4538C22.9449 38.4239 22.9311 38.3908 22.9163 38.3598L17.634 25.5488C17.6298 25.5382 17.6266 25.5275 17.6224 25.5179C17.5168 25.4688 17.4122 25.4165 17.3097 25.3631C16.6938 25.0385 16.1254 24.6254 15.6236 24.1418V24.1418ZM36.5658 37.9488C36.1105 37.9509 35.6763 38.2733 35.5506 38.7303C35.4787 38.9939 35.5104 39.2843 35.6393 39.5245C35.8189 39.8587 36.1823 40.0829 36.5658 40.0839C37.0602 40.0861 37.5356 39.7007 37.6138 39.1765C37.6476 38.9459 37.6054 38.7025 37.4923 38.4975C37.3106 38.1698 36.9504 37.952 36.5753 37.9488C36.5721 37.9488 36.569 37.9488 36.5658 37.9488V37.9488ZM20.7221 26.2054H20.1938L23.8914 35.1731L27.5891 26.2054H27.0608C24.9479 26.2075 22.835 26.2075 20.7221 26.2054ZM32.2639 7.14693C31.0648 7.72983 29.8499 8.2807 28.6212 8.78994C27.6039 9.21163 26.5717 9.61411 25.5173 9.90663C24.9933 10.0529 24.4619 10.1789 23.9158 10.1917L23.8112 10.1885C23.7763 10.1842 23.7404 10.1821 23.7066 10.1757C23.3262 10.1073 22.9966 9.81589 22.8815 9.43903C22.8614 9.3707 22.8477 9.30131 22.8403 9.23085C22.8371 9.19562 22.8371 9.15932 22.835 9.12409V7.65403C21.4521 8.32768 20.0533 8.94901 18.6123 9.45184C17.8496 9.71767 17.0741 9.95254 16.2786 10.0924C16.0282 10.1372 15.7757 10.1703 15.5222 10.1885L15.5127 10.1895C15.4873 10.1895 15.463 10.1917 15.4387 10.1917C15.4366 13.041 15.4377 15.8915 15.4398 18.7409C15.4419 19.8373 15.7842 20.9198 16.4054 21.8091C17.0477 22.7304 17.9901 23.4382 19.0476 23.7959C19.5832 23.9763 20.1484 24.0692 20.7136 24.0702H20.7231H27.0598H27.0693C28.187 24.0681 29.3048 23.6955 30.2038 23.0229C31.1039 22.3493 31.7811 21.3821 32.1097 20.3006C32.2628 19.7988 32.341 19.2725 32.3431 18.7494C32.3526 15.1826 32.3452 11.6158 32.3431 8.04904C32.3421 7.74585 32.3157 7.44479 32.2639 7.14693V7.14693ZM27.0608 2.7186H20.7221C19.598 2.71967 18.4824 3.09119 17.5791 3.7659C16.6737 4.44382 15.9944 5.41852 15.668 6.50425C15.5179 7.00494 15.4408 7.52913 15.4398 8.04904V8.05331C16.061 8.001 16.6674 7.83552 17.2643 7.65083C18.6768 7.21419 20.0396 6.62275 21.3908 5.98327C22.0648 5.66513 22.7389 5.33204 23.3907 4.98188L23.3939 4.97974C23.4773 4.94024 23.4963 4.92743 23.5851 4.89967C23.6516 4.87939 23.7192 4.86658 23.7879 4.85911C23.8566 4.8527 23.9263 4.8559 23.995 4.85911C24.0298 4.86444 24.0637 4.86765 24.0975 4.87512C24.4693 4.94985 24.7905 5.24023 24.9025 5.61175C24.9226 5.67901 24.9363 5.74733 24.9426 5.81673C24.9458 5.85196 24.9458 5.88719 24.9479 5.92135V7.85154C25.7307 7.63375 26.4956 7.34657 27.2542 7.04444C28.6054 6.50532 29.9323 5.90427 31.2455 5.27226C31.3279 5.23276 31.4103 5.19219 31.4927 5.15269C31.4441 5.07582 31.3934 5.00109 31.3406 4.92743C30.6834 4.00931 29.7295 3.31218 28.6582 2.96949C28.1437 2.80401 27.6017 2.7186 27.0608 2.7186V2.7186Z" fill="white"/>
</svg>
