<svg width="42" height="41" viewBox="0 0 42 41" fill="none" xmlns="http://www.w3.org/2000/svg">
<path d="M27.4092 0.691162H14.2512C6.59717 0.691162 0.362167 7.47356 0.362167 15.8112C0.362167 22.896 4.83417 28.9872 11.1122 30.5856V40.1328C11.1122 40.4784 11.2842 40.7808 11.5852 40.9104C11.7142 40.9536 11.8002 40.9968 11.9292 40.9968C12.1442 40.9968 12.3162 40.9104 12.4882 40.7808L23.5822 30.9744H27.4092C35.0632 30.9744 41.2552 24.192 41.2552 15.8112C41.2552 7.43036 35.0632 0.691162 27.4092 0.691162ZM27.4092 29.2896H23.2382C23.0232 29.2896 22.8512 29.376 22.6792 29.5056L12.7892 38.2752V29.8944C12.7892 29.5056 12.4882 29.16 12.1012 29.0736C6.29617 27.9504 2.03917 22.3776 2.03917 15.8112C2.03917 8.42396 7.50017 2.37596 14.2512 2.37596H27.4522C34.1602 2.37596 39.6212 8.42396 39.6212 15.8544C39.6212 23.2416 34.1602 29.2896 27.4092 29.2896Z" fill="white"/>
<path d="M9.3491 18.8782C9.1341 18.8782 9.0051 18.7054 9.0051 18.5326V14.515C9.0051 14.299 9.1771 14.1694 9.3491 14.1694C9.5641 14.1694 9.6931 14.3422 9.6931 14.515V18.5326C9.7361 18.7054 9.5641 18.8782 9.3491 18.8782Z" fill="white"/>
<path d="M16.4011 18.8782C16.1861 18.8782 16.0571 18.7054 16.0571 18.5326V14.515C16.0571 14.299 16.2291 14.1694 16.4011 14.1694C16.5731 14.1694 16.7451 14.3422 16.7451 14.515V18.5326C16.7881 18.7054 16.6161 18.8782 16.4011 18.8782Z" fill="white"/>
<path d="M23.4961 19.5695C23.2811 19.5695 23.1521 19.3967 23.1521 19.2239V13.7807C23.1521 13.5647 23.3241 13.4351 23.4961 13.4351C23.7111 13.4351 23.8401 13.6079 23.8401 13.7807V19.2239C23.8401 19.3967 23.6681 19.5695 23.4961 19.5695Z" fill="white"/>
<path d="M25.2591 18.3168C25.0441 18.3168 24.9151 18.144 24.9151 17.9712V15.0336C24.9151 14.8176 25.0871 14.688 25.2591 14.688C25.4741 14.688 25.6031 14.8608 25.6031 15.0336V17.9712C25.6031 18.1872 25.4311 18.3168 25.2591 18.3168Z" fill="white"/>
<path d="M32.3111 18.3168C32.0961 18.3168 31.9671 18.144 31.9671 17.9712V15.0336C31.9671 14.8176 32.1391 14.688 32.3111 14.688C32.5261 14.688 32.6551 14.8608 32.6551 15.0336V17.9712C32.6551 18.1872 32.4831 18.3168 32.3111 18.3168Z" fill="white"/>
<path d="M11.1121 20.2175C10.8971 20.2175 10.7681 20.0447 10.7681 19.8719V13.0895C10.7681 12.8735 10.9401 12.7439 11.1121 12.7439C11.2841 12.7439 11.4561 12.9167 11.4561 13.0895V19.8719C11.4991 20.0879 11.3271 20.2175 11.1121 20.2175Z" fill="white"/>
<path d="M18.1641 20.2175C17.9491 20.2175 17.8201 20.0447 17.8201 19.8719V13.0895C17.8201 12.8735 17.9921 12.7439 18.1641 12.7439C18.3791 12.7439 18.5081 12.9167 18.5081 13.0895V19.8719C18.5511 20.0879 18.3791 20.2175 18.1641 20.2175Z" fill="white"/>
<path d="M19.927 21.3838C19.712 21.3838 19.583 21.211 19.583 21.0382V11.9662C19.583 11.7502 19.755 11.6206 19.927 11.6206C20.142 11.6206 20.271 11.7934 20.271 11.9662V21.0382C20.314 21.2542 20.142 21.3838 19.927 21.3838Z" fill="white"/>
<path d="M28.7851 20.2175C28.5701 20.2175 28.4411 20.0447 28.4411 19.8719V13.0895C28.4411 12.8735 28.6131 12.7439 28.7851 12.7439C29.0001 12.7439 29.1291 12.9167 29.1291 13.0895V19.8719C29.1291 20.0879 28.9571 20.2175 28.7851 20.2175Z" fill="white"/>
<path d="M30.5481 21.3838C30.3331 21.3838 30.2041 21.211 30.2041 21.0382V11.9662C30.2041 11.7502 30.3761 11.6206 30.5481 11.6206C30.7201 11.6206 30.8921 11.7934 30.8921 11.9662V21.0382C30.8921 21.2542 30.7201 21.3838 30.5481 21.3838Z" fill="white"/>
<path d="M14.6382 21.0815C14.4232 21.0815 14.2942 20.9087 14.2942 20.7359V12.2687C14.2942 12.0527 14.4662 11.9231 14.6382 11.9231C14.8532 11.9231 14.9822 12.0959 14.9822 12.2687V20.7359C15.0252 20.9087 14.8532 21.0815 14.6382 21.0815Z" fill="white"/>
<path d="M12.875 23.6303C12.66 23.6303 12.531 23.4575 12.531 23.2847V9.71987C12.531 9.50387 12.703 9.37427 12.875 9.37427C13.09 9.37427 13.219 9.54707 13.219 9.71987V23.2415C13.262 23.4575 13.09 23.6303 12.875 23.6303Z" fill="white"/>
<path d="M21.7331 22.9822C21.5181 22.9822 21.3891 22.8094 21.3891 22.6366V10.3678C21.3891 10.1518 21.5611 10.0222 21.7331 10.0222C21.9481 10.0222 22.0771 10.195 22.0771 10.3678V22.6366C22.0771 22.8094 21.9051 22.9822 21.7331 22.9822Z" fill="white"/>
<path d="M27.0221 22.9822C26.8071 22.9822 26.6781 22.8094 26.6781 22.6366V10.3678C26.6781 10.1518 26.8501 10.0222 27.0221 10.0222C27.1941 10.0222 27.3661 10.195 27.3661 10.3678V22.6366C27.3661 22.8094 27.1941 22.9822 27.0221 22.9822Z" fill="white"/>
<path d="M32.0531 16.7615H9.56412C9.34912 16.7615 9.22012 16.5887 9.22012 16.4159C9.22012 16.2431 9.39212 16.0703 9.56412 16.0703H32.0531C32.2681 16.0703 32.3971 16.2431 32.3971 16.4159C32.3971 16.5887 32.2681 16.7615 32.0531 16.7615Z" fill="white"/>
</svg>
